<svg width="116" height="49" viewBox="0 0 116 49" fill="none" xmlns="http://www.w3.org/2000/svg">
<path d="M14.3499 14.538V9.78041C14.3499 9.12838 14.222 8.51503 13.9662 7.94036C13.7214 7.35465 13.3821 6.84629 12.9483 6.41528C12.5145 5.98428 12.0028 5.64722 11.4132 5.40409C10.8348 5.14991 10.2174 5.02282 9.56106 5.02282C8.90475 5.02282 8.2818 5.14991 7.69223 5.40409C7.11378 5.64722 6.60764 5.98428 6.17381 6.41528C5.73997 6.84629 5.39513 7.35465 5.13928 7.94036C4.89455 8.51503 4.77219 9.12838 4.77219 9.78041V14.538H14.3499ZM19.1388 24.0366H14.3499V19.279H4.77219V24.0366H0V9.78041C0 8.4653 0.25029 7.23308 0.750869 6.08375C1.25145 4.92336 1.93001 3.91216 2.78656 3.05016C3.65423 2.18816 4.66651 1.5085 5.8234 1.01119C6.99142 0.513886 8.23731 0.265231 9.56106 0.265231C10.8848 0.265231 12.1251 0.513886 13.282 1.01119C14.45 1.5085 15.4679 2.18816 16.3356 3.05016C17.2032 3.91216 17.8874 4.92336 18.3879 6.08375C18.8885 7.23308 19.1388 8.4653 19.1388 9.78041V24.0366Z" fill="#2E2E2E"/>
<path d="M28.7659 5.02282V14.538H33.5548C34.2111 14.538 34.8285 14.4164 35.407 14.1733C35.9854 13.9191 36.4915 13.5765 36.9254 13.1455C37.3592 12.7145 37.6985 12.2117 37.9432 11.637C38.1991 11.0513 38.327 10.4324 38.327 9.78041C38.327 9.12838 38.1991 8.51503 37.9432 7.94036C37.6985 7.35465 37.3592 6.84629 36.9254 6.41528C36.4915 5.98428 35.9854 5.64722 35.407 5.40409C34.8285 5.14991 34.2111 5.02282 33.5548 5.02282H28.7659ZM28.7659 24.0366H23.9771V0.265231H33.5548C34.4336 0.265231 35.279 0.38127 36.0911 0.613348C36.9031 0.834374 37.6596 1.15486 38.3604 1.57481C39.0723 1.98371 39.7175 2.48102 40.2959 3.06674C40.8855 3.64141 41.3861 4.28238 41.7977 4.98967C42.2204 5.69695 42.543 6.45396 42.7655 7.26071C42.9991 8.06745 43.1159 8.90735 43.1159 9.78041C43.1159 10.5982 43.0102 11.3939 42.7988 12.1675C42.5986 12.9411 42.3038 13.676 41.9145 14.3722C41.5363 15.0685 41.0691 15.7094 40.5129 16.2952C39.9567 16.8809 39.3337 17.3892 38.644 17.8202L41.2971 24.0366H36.2079L34.1221 19.2459L28.7659 19.279V24.0366Z" fill="#2E2E2E"/>
<path d="M65.9917 21.6329C64.8793 22.5723 63.6389 23.2962 62.2707 23.8045C60.9024 24.3018 59.4786 24.5505 57.9991 24.5505C56.8644 24.5505 55.7687 24.4013 54.7119 24.1029C53.6663 23.8156 52.6874 23.4067 51.7752 22.8762C50.8631 22.3347 50.0288 21.6937 49.2723 20.9533C48.5159 20.2018 47.8707 19.3729 47.3368 18.4667C46.8028 17.5495 46.3857 16.5659 46.0853 15.516C45.7961 14.4662 45.6515 13.3776 45.6515 12.2504C45.6515 11.1231 45.7961 10.0401 46.0853 9.00129C46.3857 7.96247 46.8028 6.98995 47.3368 6.08375C47.8707 5.16649 48.5159 4.33764 49.2723 3.5972C50.0288 2.84571 50.8631 2.20474 51.7752 1.67427C52.6874 1.14381 53.6663 0.734912 54.7119 0.447578C55.7687 0.149193 56.8644 0 57.9991 0C59.4786 0 60.9024 0.25418 62.2707 0.76254C63.6389 1.25985 64.8793 1.97818 65.9917 2.91755L63.4888 7.06179C62.7657 6.3324 61.9314 5.76326 60.9859 5.35436C60.0403 4.93441 59.0447 4.72443 57.9991 4.72443C56.9534 4.72443 55.969 4.92336 55.0457 5.3212C54.1335 5.71905 53.3326 6.26057 52.6429 6.94575C51.9532 7.61988 51.4081 8.41557 51.0077 9.33283C50.6072 10.239 50.407 11.2116 50.407 12.2504C50.407 13.3002 50.6072 14.2838 51.0077 15.2011C51.4081 16.1183 51.9532 16.9196 52.6429 17.6047C53.3326 18.2899 54.1335 18.8314 55.0457 19.2293C55.969 19.6271 56.9534 19.826 57.9991 19.826C58.5998 19.826 59.1838 19.7542 59.7511 19.6105C60.3184 19.4669 60.858 19.268 61.3697 19.0138V12.2504H65.9917V21.6329Z" fill="#2E2E2E"/>
<path d="M96.242 7.39332C96.242 6.40976 96.4311 5.48697 96.8093 4.62497C97.1875 3.76297 97.6992 3.01148 98.3444 2.37051C99.0007 1.71848 99.7627 1.20459 100.63 0.828848C101.498 0.453104 102.427 0.265231 103.417 0.265231H114.396V5.02282H103.417C103.083 5.02282 102.772 5.0836 102.483 5.20517C102.193 5.32673 101.937 5.49803 101.715 5.71905C101.504 5.92903 101.337 6.17768 101.214 6.46501C101.092 6.75235 101.031 7.06179 101.031 7.39332C101.031 7.72486 101.092 8.03983 101.214 8.33821C101.337 8.62555 101.504 8.87973 101.715 9.10075C101.937 9.31073 102.193 9.4765 102.483 9.59806C102.772 9.71962 103.083 9.78041 103.417 9.78041H108.206C109.196 9.78041 110.125 9.96828 110.992 10.344C111.871 10.7087 112.633 11.2171 113.278 11.8691C113.935 12.5101 114.446 13.2671 114.813 14.1401C115.192 15.0022 115.381 15.9249 115.381 16.9085C115.381 17.8921 115.192 18.8149 114.813 19.6769C114.446 20.5389 113.935 21.2959 113.278 21.9479C112.633 22.5889 111.871 23.0972 110.992 23.473C110.125 23.8487 109.196 24.0366 108.206 24.0366H97.5769V19.279H108.206C108.54 19.279 108.851 19.2182 109.14 19.0967C109.429 18.9751 109.68 18.8093 109.891 18.5993C110.114 18.3783 110.286 18.1241 110.408 17.8368C110.531 17.5495 110.592 17.24 110.592 16.9085C110.592 16.577 110.531 16.2675 110.408 15.9802C110.286 15.6929 110.114 15.4442 109.891 15.2342C109.68 15.0132 109.429 14.8419 109.14 14.7203C108.851 14.5988 108.54 14.538 108.206 14.538H103.417C102.427 14.538 101.498 14.3501 100.63 13.9744C99.7627 13.5986 99.0007 13.0903 98.3444 12.4493C97.6992 11.7973 97.1875 11.0403 96.8093 10.1783C96.4311 9.3052 96.242 8.37689 96.242 7.39332Z" fill="#2E2E2E"/>
<path d="M93.4066 11.0643C92.9928 10.6724 92.4056 10.7194 91.9806 11.1797C90.7541 12.5077 89.3486 13.5874 87.7942 14.4605C87.6653 14.5331 87.5283 14.5881 87.3088 14.6928C87.3953 14.5192 87.4316 14.4311 87.4807 14.3505C88.2556 13.0785 88.8259 11.7104 89.2488 10.2713C89.768 8.5033 90.0033 6.68934 90.0662 4.84815C90.0774 4.52241 90.0575 4.18386 89.9833 3.86934C89.8713 3.39569 89.3839 3.14098 88.8627 3.22856C88.4136 3.30438 88.0791 3.73051 88.0924 4.26129C88.1246 5.54874 88.0014 6.82123 87.7574 8.08145C87.6674 8.54709 87.5441 9.00578 87.4372 9.46822C87.3273 9.37317 87.2909 9.29147 87.272 9.20549C86.9309 7.64571 86.3544 6.18205 85.5995 4.79368C84.6906 3.12443 83.5946 1.60363 82.2484 0.289482C81.83 -0.117952 81.2065 -0.0853786 80.8418 0.324725C80.4644 0.749246 80.4925 1.36333 80.9175 1.78839C82.1763 3.0502 83.2084 4.48984 84.04 6.0886C84.0994 6.20287 84.1454 6.32409 84.1971 6.44157C84.0585 6.43409 83.971 6.38069 83.8846 6.32356C80.8505 4.29547 77.5071 3.45764 73.9334 3.50943C73.3693 3.51851 72.9826 3.95585 72.9872 4.54164C72.9918 5.10873 73.38 5.51403 73.938 5.53218C74.3943 5.54714 74.851 5.55515 75.3067 5.57811C76.77 5.64913 78.1919 5.95297 79.5821 6.42555C79.6649 6.45332 79.7411 6.50458 79.8941 6.58254C79.6695 6.63914 79.5355 6.67546 79.4005 6.70696C75.9389 7.51649 73.0557 9.37744 70.5971 12.0004C70.1905 12.434 70.2171 13.0764 70.6104 13.4667C71.015 13.8683 71.6216 13.8389 72.0384 13.3861C73.3018 12.0137 74.7548 10.9079 76.3634 10.0198C76.4591 9.9675 76.5624 9.92905 76.7373 9.85002C76.6488 10.0188 76.612 10.1005 76.5659 10.1763C75.7016 11.5951 75.0791 13.1234 74.6571 14.743C74.1835 16.558 73.9477 18.4061 73.9789 20.289C73.9892 20.8849 74.3728 21.3132 74.8883 21.3361C75.4571 21.3612 75.8739 21.0083 75.9466 20.4145C75.968 20.2377 75.9184 20.0524 75.9235 19.8725C75.9629 18.4531 76.1092 17.0477 76.4519 15.6689C76.502 15.467 76.5624 15.2673 76.6181 15.0676C76.7138 15.1798 76.7496 15.2818 76.7746 15.387C77.5899 18.8483 79.3299 21.7436 81.7482 24.2207C82.1875 24.6714 82.8171 24.6517 83.2012 24.2133C83.5608 23.8021 83.5061 23.1415 83.0816 22.717C81.8065 21.4397 80.7728 19.9734 79.9406 18.3485C79.8982 18.2652 79.8695 18.1744 79.8005 18.003C79.9667 18.1055 80.0562 18.16 80.1457 18.2155C80.5866 18.4852 81.0188 18.7719 81.4699 19.0218C83.1966 19.9761 85.0456 20.5586 86.9733 20.8326C87.9927 20.9778 89.0299 21.0109 90.0606 21.0451C90.6702 21.0654 91.085 20.564 91.0564 19.9515C91.0298 19.3956 90.5531 18.9706 89.9864 18.9887C89.7491 18.9967 89.5112 18.9892 89.2729 18.9903C87.9712 18.9919 86.6997 18.7602 85.443 18.4286C85.0297 18.3202 84.6257 18.1696 84.2175 18.0387C84.2221 18.0094 84.2272 17.9805 84.2318 17.9522C84.3428 17.9207 84.4528 17.8839 84.5653 17.8588C88.0428 17.0605 90.9408 15.2054 93.4112 12.576C93.8572 12.1013 93.8383 11.4723 93.4071 11.0654L93.4066 11.0643ZM82.1011 16.0464C80.112 16.0416 78.442 14.2869 78.4492 12.2097C78.4568 10.1341 80.1401 8.39276 82.1282 8.40291C84.125 8.41359 85.798 10.1725 85.777 12.2391C85.7555 14.3382 84.1024 16.0512 82.1016 16.0464H82.1011Z" fill="#A5BDF9"/>
<path d="M83.925 12.2359C83.9163 13.2734 83.0979 14.1166 82.1047 14.1118C81.1139 14.1064 80.2941 13.2414 80.3038 12.214C80.314 11.1775 81.1426 10.3237 82.1256 10.3343C83.1184 10.345 83.9337 11.2069 83.925 12.2359Z" fill="#940732"/>
<path d="M3.82783 32.1085V39.8917H7.65565C8.18026 39.8917 8.67374 39.7923 9.1361 39.5934C9.59846 39.3855 10.003 39.1052 10.3498 38.7527C10.6966 38.4001 10.9678 37.9888 11.1634 37.5188C11.3679 37.0397 11.4701 36.5335 11.4701 36.0001C11.4701 35.4668 11.3679 34.9651 11.1634 34.495C10.9678 34.0159 10.6966 33.6001 10.3498 33.2475C10.003 32.895 9.59846 32.6193 9.1361 32.4204C8.67374 32.2125 8.18026 32.1085 7.65565 32.1085H3.82783ZM3.82783 47.6613H0V28.217H7.65565C8.35809 28.217 9.03385 28.3119 9.68294 28.5017C10.332 28.6825 10.9366 28.9446 11.4968 29.2882C12.0659 29.6226 12.5816 30.0294 13.044 30.5085C13.5152 30.9786 13.9153 31.5029 14.2443 32.0814C14.5822 32.66 14.8401 33.2792 15.0179 33.9391C15.2046 34.599 15.298 35.286 15.298 36.0001C15.298 37.0668 15.0979 38.0747 14.6978 39.0239C14.2977 39.964 13.7508 40.7866 13.0573 41.4917C12.3637 42.1968 11.5502 42.7527 10.6166 43.1595C9.69183 43.5663 8.70486 43.7697 7.65565 43.7697H3.82783V47.6613Z" fill="#940732"/>
<path d="M29.355 39.8917V36.0001C29.355 35.4668 29.2528 34.9651 29.0483 34.495C28.8527 34.0159 28.5815 33.6001 28.2347 33.2475C27.8879 32.895 27.4789 32.6193 27.0077 32.4204C26.5453 32.2125 26.0518 32.1085 25.5272 32.1085C25.0026 32.1085 24.5047 32.2125 24.0334 32.4204C23.5711 32.6193 23.1665 32.895 22.8197 33.2475C22.4729 33.6001 22.1973 34.0159 21.9928 34.495C21.7972 34.9651 21.6994 35.4668 21.6994 36.0001V39.8917H29.355ZM33.1829 47.6613H29.355V43.7697H21.6994V47.6613H17.8849V36.0001C17.8849 34.9244 18.0849 33.9165 18.4851 32.9763C18.8852 32.0272 19.4276 31.2 20.1122 30.4949C20.8058 29.7899 21.6149 29.2339 22.5396 28.8271C23.4732 28.4203 24.4691 28.217 25.5272 28.217C26.5853 28.217 27.5767 28.4203 28.5014 28.8271C29.4351 29.2339 30.2486 29.7899 30.9422 30.4949C31.6357 31.2 32.1826 32.0272 32.5827 32.9763C32.9828 33.9165 33.1829 34.9244 33.1829 36.0001V47.6613Z" fill="#940732"/>
<path d="M40.878 32.1085V39.8917H44.7058C45.2304 39.8917 45.7239 39.7923 46.1863 39.5934C46.6486 39.3855 47.0532 39.1052 47.4 38.7527C47.7467 38.4001 48.0179 37.9888 48.2135 37.5188C48.4181 37.0397 48.5203 36.5335 48.5203 36.0001C48.5203 35.4668 48.4181 34.9651 48.2135 34.495C48.0179 34.0159 47.7467 33.6001 47.4 33.2475C47.0532 32.895 46.6486 32.6193 46.1863 32.4204C45.7239 32.2125 45.2304 32.1085 44.7058 32.1085H40.878ZM40.878 47.6613H37.0502V28.217H44.7058C45.4083 28.217 46.084 28.3119 46.7331 28.5017C47.3822 28.6825 47.9868 28.9446 48.547 29.2882C49.116 29.6226 49.6318 30.0294 50.0941 30.5085C50.5654 30.9786 50.9655 31.5029 51.2945 32.0814C51.6324 32.66 51.8902 33.2792 52.0681 33.9391C52.2548 34.599 52.3481 35.286 52.3481 36.0001C52.3481 36.669 52.2637 37.3199 52.0947 37.9527C51.9347 38.5855 51.6991 39.1866 51.3878 39.7561C51.0855 40.3256 50.7121 40.8499 50.2675 41.329C49.8229 41.8081 49.325 42.2239 48.7737 42.5765L50.8944 47.6613H46.8265L45.1593 43.7426L40.878 43.7697V47.6613Z" fill="#940732"/>
<path d="M59.243 47.6613H55.4152V28.217H59.243V37.9391L66.3652 28.217H70.7132L64.6713 36.4205L70.7132 47.6613H66.3652L62.1639 39.7968L59.243 43.7697V47.6613Z" fill="#940732"/>
<path d="M76.8612 47.6613H73.0333V28.217H76.8612V47.6613Z" fill="#940732"/>
<path d="M96.2665 47.6613H92.1719L84.7964 34.8611V47.6613H80.9685V28.217H85.0631L92.4387 41.0307V28.217H96.2665V47.6613Z" fill="#940732"/>
<path d="M115.592 45.6952C114.703 46.4635 113.711 47.0556 112.618 47.4715C111.524 47.8782 110.386 48.0816 109.203 48.0816C108.296 48.0816 107.42 47.9596 106.576 47.7155C105.74 47.4805 104.958 47.146 104.228 46.7121C103.499 46.2692 102.832 45.7449 102.228 45.1392C101.623 44.5245 101.107 43.8465 100.681 43.1053C100.254 42.355 99.9204 41.5505 99.6804 40.6917C99.4492 39.8329 99.3336 38.9425 99.3336 38.0205C99.3336 37.0984 99.4492 36.2125 99.6804 35.3628C99.9204 34.5131 100.254 33.7176 100.681 32.9763C101.107 32.226 101.623 31.5481 102.228 30.9424C102.832 30.3277 103.499 29.8034 104.228 29.3695C104.958 28.9356 105.74 28.6011 106.576 28.3661C107.42 28.122 108.296 28 109.203 28C110.386 28 111.524 28.2079 112.618 28.6237C113.711 29.0305 114.703 29.6181 115.592 30.3865L113.591 33.7764C113.013 33.1797 112.346 32.7142 111.591 32.3797C110.835 32.0362 110.039 31.8645 109.203 31.8645C108.367 31.8645 107.581 32.0272 106.843 32.3526C106.113 32.678 105.473 33.121 104.922 33.6814C104.371 34.2329 103.935 34.8837 103.615 35.634C103.295 36.3753 103.135 37.1707 103.135 38.0205C103.135 38.8792 103.295 39.6838 103.615 40.4341C103.935 41.1844 104.371 41.8397 104.922 42.4002C105.473 42.9607 106.113 43.4036 106.843 43.729C107.581 44.0545 108.367 44.2172 109.203 44.2172C109.683 44.2172 110.15 44.1584 110.604 44.0409C111.057 43.9234 111.488 43.7607 111.897 43.5528V38.0205H115.592V45.6952Z" fill="#940732"/>
</svg>
