<svg width="236" height="98" viewBox="0 0 236 98" fill="none" xmlns="http://www.w3.org/2000/svg">
<path d="M29.2978 29.6817V19.9683C29.2978 18.6371 29.0366 17.3849 28.5142 16.2116C28.0146 15.0157 27.3219 13.9778 26.4361 13.0979C25.5504 12.2179 24.5057 11.5297 23.302 11.0333C22.121 10.5144 20.8605 10.2549 19.5205 10.2549C18.1805 10.2549 16.9087 10.5144 15.705 11.0333C14.524 11.5297 13.4906 12.2179 12.6049 13.0979C11.7191 13.9778 11.0151 15.0157 10.4927 16.2116C9.99304 17.3849 9.74321 18.6371 9.74321 19.9683V29.6817H29.2978ZM39.0751 49.0747H29.2978V39.3613H9.74321V49.0747H0V19.9683C0 17.2833 0.511008 14.7675 1.53302 12.421C2.55504 10.0519 3.94044 7.98733 5.68922 6.22741C7.46071 4.46749 9.52746 3.07986 11.8894 2.06452C14.2742 1.04918 16.8178 0.541514 19.5205 0.541514C22.2232 0.541514 24.7555 1.04918 27.1175 2.06452C29.5022 3.07986 31.5803 4.46749 33.3518 6.22741C35.1233 7.98733 36.52 10.0519 37.542 12.421C38.564 14.7675 39.0751 17.2833 39.0751 19.9683V49.0747Z" fill="#F7F7F7"/>
<path d="M58.7305 10.2549V29.6817H68.5077C69.8477 29.6817 71.1082 29.4335 72.2892 28.9372C73.4702 28.4182 74.5036 27.7187 75.3893 26.8388C76.2751 25.9588 76.9678 24.9322 77.4674 23.7589C77.9898 22.5631 78.251 21.2996 78.251 19.9683C78.251 18.6371 77.9898 17.3849 77.4674 16.2116C76.9678 15.0157 76.2751 13.9778 75.3893 13.0979C74.5036 12.2179 73.4702 11.5297 72.2892 11.0333C71.1082 10.5144 69.8477 10.2549 68.5077 10.2549H58.7305ZM58.7305 49.0747H48.9532V0.541514H68.5077C70.3019 0.541514 72.028 0.778426 73.686 1.25225C75.3439 1.70351 76.8883 2.35784 78.3191 3.21524C79.7726 4.05007 81.0899 5.06541 82.2709 6.26126C83.4746 7.43454 84.4966 8.74319 85.3369 10.1872C86.2 11.6313 86.8586 13.1768 87.3128 14.8239C87.7898 16.4711 88.0282 18.1858 88.0282 19.9683C88.0282 21.638 87.8125 23.2625 87.381 24.842C86.9722 26.4214 86.3703 27.9218 85.5754 29.3433C84.8032 30.7648 83.8493 32.0734 82.7138 33.2693C81.5782 34.4651 80.3063 35.503 78.8982 36.383L84.3149 49.0747H73.9244L69.666 39.2936L58.7305 39.3613V49.0747Z" fill="#F7F7F7"/>
<path d="M134.733 44.1672C132.462 46.0851 129.93 47.563 127.136 48.6009C124.342 49.6162 121.435 50.1239 118.415 50.1239C116.098 50.1239 113.861 49.8193 111.704 49.2101C109.569 48.6234 107.57 47.7886 105.708 46.7056C103.845 45.6 102.142 44.2913 100.598 42.7796C99.0533 41.2453 97.736 39.5531 96.6459 37.7029C95.5557 35.8302 94.704 33.8221 94.0908 31.6786C93.5003 29.5351 93.2051 27.3126 93.2051 25.0112C93.2051 22.7097 93.5003 20.4986 94.0908 18.3776C94.704 16.2567 95.5557 14.2712 96.6459 12.421C97.736 10.5482 99.0533 8.85601 100.598 7.34428C102.142 5.80999 103.845 4.50134 105.708 3.41831C107.57 2.33528 109.569 1.50045 111.704 0.913805C113.861 0.304602 116.098 0 118.415 0C121.435 0 124.342 0.518951 127.136 1.55685C129.93 2.57219 132.462 4.03879 134.733 5.95665L129.623 14.4178C128.147 12.9286 126.443 11.7666 124.513 10.9318C122.582 10.0744 120.55 9.64572 118.415 9.64572C116.28 9.64572 114.27 10.0519 112.385 10.8641C110.523 11.6764 108.887 12.782 107.479 14.1809C106.071 15.5572 104.958 17.1818 104.141 19.0545C103.323 20.9047 102.914 22.8902 102.914 25.0112C102.914 27.1547 103.323 29.1628 104.141 31.0355C104.958 32.9083 106.071 34.5441 107.479 35.943C108.887 37.3419 110.523 38.4475 112.385 39.2598C114.27 40.072 116.28 40.4782 118.415 40.4782C119.641 40.4782 120.834 40.3315 121.992 40.0382C123.15 39.7449 124.252 39.3387 125.296 38.8198V25.0112H134.733V44.1672Z" fill="#F7F7F7"/>
<path d="M196.494 15.0947C196.494 13.0866 196.88 11.2026 197.652 9.44265C198.425 7.68273 199.469 6.14844 200.787 4.83978C202.127 3.50856 203.682 2.45938 205.454 1.69223C207.225 0.925086 209.122 0.541514 211.143 0.541514H233.559V10.2549H211.143C210.462 10.2549 209.826 10.379 209.235 10.6272C208.645 10.8754 208.122 11.2251 207.668 11.6764C207.237 12.1051 206.896 12.6128 206.646 13.1994C206.396 13.786 206.271 14.4178 206.271 15.0947C206.271 15.7716 206.396 16.4146 206.646 17.0238C206.896 17.6105 207.237 18.1294 207.668 18.5807C208.122 19.0094 208.645 19.3478 209.235 19.596C209.826 19.8442 210.462 19.9683 211.143 19.9683H220.92C222.942 19.9683 224.838 20.3519 226.609 21.119C228.404 21.8636 229.959 22.9015 231.277 24.2328C232.617 25.5414 233.661 27.087 234.411 28.8695C235.183 30.6294 235.569 32.5134 235.569 34.5215C235.569 36.5296 235.183 38.4136 234.411 40.1736C233.661 41.9335 232.617 43.4791 231.277 44.8103C229.959 46.1189 228.404 47.1568 226.609 47.924C224.838 48.6911 222.942 49.0747 220.92 49.0747H199.219V39.3613H220.92C221.602 39.3613 222.237 39.2372 222.828 38.989C223.418 38.7408 223.929 38.4024 224.361 37.9737C224.815 37.5224 225.167 37.0035 225.417 36.4168C225.667 35.8302 225.792 35.1984 225.792 34.5215C225.792 33.8446 225.667 33.2129 225.417 32.6262C225.167 32.0396 224.815 31.5319 224.361 31.1032C223.929 30.6519 223.418 30.3022 222.828 30.054C222.237 29.8058 221.602 29.6817 220.92 29.6817H211.143C209.122 29.6817 207.225 29.2982 205.454 28.531C203.682 27.7639 202.127 26.726 200.787 25.4173C199.469 24.0861 198.425 22.5405 197.652 20.7806C196.88 18.9981 196.494 17.1028 196.494 15.0947Z" fill="#F7F7F7"/>
<path d="M190.705 22.5896C189.86 21.7894 188.662 21.8853 187.794 22.8251C185.29 25.5365 182.42 27.741 179.247 29.5235C178.984 29.6717 178.704 29.784 178.256 29.9977C178.432 29.6434 178.506 29.4635 178.607 29.2989C180.189 26.702 181.353 23.9088 182.217 20.9706C183.276 17.3609 183.757 13.6574 183.885 9.8983C183.908 9.23326 183.867 8.54205 183.716 7.89991C183.487 6.93288 182.492 6.41284 181.428 6.59164C180.511 6.74645 179.828 7.61645 179.855 8.70014C179.921 11.3287 179.67 13.9267 179.171 16.4996C178.988 17.4503 178.736 18.3868 178.518 19.3309C178.293 19.1369 178.219 18.9701 178.181 18.7946C177.484 15.61 176.307 12.6217 174.766 9.78709C172.91 6.37904 170.672 3.27407 167.924 0.591025C167.07 -0.240819 165.797 -0.174315 165.052 0.66298C164.282 1.52971 164.339 2.78347 165.207 3.65129C167.777 6.2275 169.884 9.16675 171.582 12.4309C171.703 12.6642 171.797 12.9117 171.902 13.1515C171.619 13.1363 171.441 13.0272 171.264 12.9106C165.07 8.76991 158.244 7.05934 150.948 7.1651C149.796 7.18363 149.006 8.07653 149.016 9.2725C149.025 10.4303 149.818 11.2578 150.957 11.2949C151.888 11.3254 152.821 11.3418 153.751 11.3886C156.739 11.5336 159.642 12.154 162.48 13.1188C162.649 13.1755 162.805 13.2802 163.117 13.4394C162.659 13.5549 162.385 13.6291 162.11 13.6934C155.042 15.3462 149.156 19.1456 144.136 24.5008C143.306 25.3861 143.36 26.6976 144.163 27.4946C144.989 28.3144 146.228 28.2545 147.079 27.3299C149.658 24.5281 152.625 22.2702 155.909 20.4571C156.104 20.3503 156.315 20.2718 156.672 20.1105C156.491 20.455 156.416 20.6218 156.322 20.7766C154.557 23.6733 153.287 26.7935 152.425 30.1002C151.458 33.8059 150.977 37.5792 151.04 41.4233C151.061 42.64 151.845 43.5144 152.897 43.5612C154.058 43.6125 154.909 42.8918 155.058 41.6795C155.102 41.3186 155 40.9403 155.011 40.5729C155.091 37.6751 155.39 34.8056 156.089 31.9907C156.192 31.5786 156.315 31.1708 156.429 30.7631C156.624 30.992 156.697 31.2002 156.748 31.415C158.413 38.4819 161.965 44.3931 166.903 49.4507C167.8 50.3708 169.085 50.3305 169.869 49.4354C170.603 48.5959 170.492 47.2473 169.625 46.3806C167.022 43.7728 164.911 40.779 163.212 37.4614C163.126 37.2913 163.067 37.106 162.926 36.756C163.265 36.9654 163.448 37.0766 163.631 37.19C164.531 37.7405 165.414 38.326 166.335 38.8362C169.86 40.7844 173.635 41.9739 177.571 42.5332C179.652 42.8297 181.77 42.8973 183.874 42.9671C185.118 43.0085 185.965 41.9848 185.907 40.7343C185.853 39.5994 184.879 38.7315 183.722 38.7686C183.238 38.785 182.752 38.7697 182.266 38.7719C179.608 38.7751 177.012 38.302 174.446 37.625C173.603 37.4036 172.778 37.0962 171.944 36.8291C171.954 36.7691 171.964 36.7103 171.973 36.6525C172.2 36.5882 172.425 36.5129 172.654 36.4617C179.754 34.8318 185.671 31.0443 190.715 25.6761C191.625 24.7069 191.587 23.4226 190.706 22.5918L190.705 22.5896ZM167.623 32.7615C163.562 32.7516 160.153 29.1692 160.167 24.9282C160.183 20.6905 163.619 17.1352 167.678 17.1559C171.755 17.1777 175.171 20.769 175.128 24.9881C175.084 29.2738 171.709 32.7713 167.624 32.7615H167.623Z" fill="#F7F7F7"/>
<path d="M171.347 24.9816C171.329 27.0999 169.658 28.8214 167.63 28.8116C165.608 28.8007 163.934 27.0345 163.954 24.9369C163.975 22.8208 165.666 21.0775 167.673 21.0993C169.7 21.1211 171.365 22.8807 171.347 24.9816Z" fill="#F7F7F7"/>
<path d="M7.81515 65.3883V81.2789H15.6303C16.7014 81.2789 17.7089 81.0759 18.6529 80.6698C19.5969 80.2453 20.4229 79.6732 21.1308 78.9534C21.8388 78.2336 22.3925 77.3939 22.7919 76.4342C23.2094 75.456 23.4182 74.4225 23.4182 73.3336C23.4182 72.2447 23.2094 71.2203 22.7919 70.2606C22.3925 69.2825 21.8388 68.4335 21.1308 67.7137C20.4229 66.9939 19.5969 66.431 18.6529 66.025C17.7089 65.6005 16.7014 65.3883 15.6303 65.3883H7.81515ZM7.81515 97.1418H0V57.4429H15.6303C17.0644 57.4429 18.4441 57.6367 19.7693 58.0243C21.0945 58.3934 22.329 58.9287 23.4727 59.63C24.6345 60.3129 25.6874 61.1434 26.6314 62.1215C27.5935 63.0813 28.4105 64.1517 29.0821 65.3329C29.772 66.5141 30.2984 67.7783 30.6615 69.1256C31.0427 70.4729 31.2334 71.8755 31.2334 73.3336C31.2334 75.5114 30.8249 77.5692 30.008 79.5071C29.1911 81.4265 28.0746 83.106 26.6586 84.5456C25.2427 85.9851 23.5816 87.1202 21.6755 87.9507C19.7875 88.7812 17.7724 89.1965 15.6303 89.1965H7.81515V97.1418Z" fill="#F7F7F7"/>
<path d="M59.9332 81.2789V73.3336C59.9332 72.2447 59.7244 71.2203 59.3069 70.2606C58.9075 69.2825 58.3538 68.4335 57.6458 67.7137C56.9378 66.9939 56.1028 66.431 55.1406 66.025C54.1966 65.6005 53.1891 65.3883 52.118 65.3883C51.047 65.3883 50.0304 65.6005 49.0682 66.025C48.1242 66.431 47.2982 66.9939 46.5903 67.7137C45.8823 68.4335 45.3195 69.2825 44.902 70.2606C44.5026 71.2203 44.3029 72.2447 44.3029 73.3336V81.2789H59.9332ZM67.7483 97.1418H59.9332V89.1965H44.3029V97.1418H36.515V73.3336C36.515 71.1373 36.9234 69.0795 37.7403 67.16C38.5573 65.2221 39.6646 63.5334 41.0625 62.0939C42.4785 60.6543 44.1304 59.5192 46.0184 58.6887C47.9245 57.8582 49.9578 57.4429 52.118 57.4429C54.2783 57.4429 56.3025 57.8582 58.1904 58.6887C60.0966 59.5192 61.7576 60.6543 63.1736 62.0939C64.5896 63.5334 65.706 65.2221 66.523 67.16C67.3399 69.0795 67.7483 71.1373 67.7483 73.3336V97.1418Z" fill="#F7F7F7"/>
<path d="M83.4592 65.3883V81.2789H91.2744C92.3454 81.2789 93.353 81.0759 94.297 80.6698C95.2409 80.2453 96.0669 79.6732 96.7749 78.9534C97.4829 78.2336 98.0366 77.3939 98.436 76.4342C98.8535 75.456 99.0623 74.4225 99.0623 73.3336C99.0623 72.2447 98.8535 71.2203 98.436 70.2606C98.0366 69.2825 97.4829 68.4335 96.7749 67.7137C96.0669 66.9939 95.2409 66.431 94.297 66.025C93.353 65.6005 92.3454 65.3883 91.2744 65.3883H83.4592ZM83.4592 97.1418H75.6441V57.4429H91.2744C92.7085 57.4429 94.0882 57.6367 95.4134 58.0243C96.7386 58.3934 97.9731 58.9287 99.1168 59.63C100.279 60.3129 101.331 61.1434 102.275 62.1215C103.238 63.0813 104.055 64.1517 104.726 65.3329C105.416 66.5141 105.943 67.7783 106.306 69.1256C106.687 70.4729 106.877 71.8755 106.877 73.3336C106.877 74.6993 106.705 76.0281 106.36 77.3201C106.033 78.612 105.552 79.8393 104.917 81.002C104.3 82.1648 103.537 83.2352 102.629 84.2134C101.722 85.1915 100.705 86.0405 99.5797 86.7603L103.909 97.1418H95.604L92.2002 89.1411L83.4592 89.1965V97.1418Z" fill="#F7F7F7"/>
<path d="M120.955 97.1418H113.139V57.4429H120.955V77.2924L135.496 57.4429H144.373L132.037 74.1918L144.373 97.1418H135.496L126.918 81.0851L120.955 89.1965V97.1418Z" fill="#F7F7F7"/>
<path d="M156.925 97.1418H149.11V57.4429H156.925V97.1418Z" fill="#F7F7F7"/>
<path d="M196.544 97.1418H188.184L173.126 71.0081V97.1418H165.311V57.4429H173.671L188.729 83.6043V57.4429H196.544V97.1418Z" fill="#F7F7F7"/>
<path d="M236 93.1276C234.185 94.6964 232.16 95.9052 229.928 96.7542C227.695 97.5847 225.371 98 222.957 98C221.105 98 219.317 97.7508 217.592 97.2525C215.886 96.7727 214.288 96.0898 212.8 95.2039C211.311 94.2996 209.95 93.2291 208.715 91.9926C207.481 90.7376 206.428 89.3534 205.556 87.84C204.685 86.3081 204.004 84.6655 203.514 82.9122C203.042 81.1589 202.806 79.341 202.806 77.4585C202.806 75.576 203.042 73.7673 203.514 72.0324C204.004 70.2975 204.685 68.6734 205.556 67.16C206.428 65.6282 207.481 64.244 208.715 63.0074C209.95 61.7524 211.311 60.682 212.8 59.7961C214.288 58.9102 215.886 58.2273 217.592 57.7475C219.317 57.2492 221.105 57 222.957 57C225.371 57 227.695 57.4245 229.928 58.2735C232.16 59.104 234.185 60.3036 236 61.8724L231.915 68.7934C230.735 67.5753 229.374 66.6248 227.831 65.9419C226.288 65.2406 224.663 64.8899 222.957 64.8899C221.25 64.8899 219.644 65.2221 218.137 65.8866C216.648 66.551 215.341 67.4553 214.216 68.5996C213.09 69.7254 212.201 71.0542 211.547 72.5861C210.893 74.0995 210.567 75.7236 210.567 77.4585C210.567 79.2118 210.893 80.8544 211.547 82.3862C212.201 83.9181 213.09 85.2561 214.216 86.4004C215.341 87.5447 216.648 88.449 218.137 89.1134C219.644 89.7779 221.25 90.1101 222.957 90.1101C223.937 90.1101 224.89 89.9901 225.816 89.7502C226.742 89.5102 227.622 89.178 228.457 88.7535V77.4585H236V93.1276Z" fill="#F7F7F7"/>
</svg>
